<?xml version="1.0" encoding="utf-8"?>
<!-- Generator: Adobe Illustrator 16.0.3, SVG Export Plug-In . SVG Version: 6.00 Build 0)  -->
<!DOCTYPE svg PUBLIC "-//W3C//DTD SVG 1.1//EN" "http://www.w3.org/Graphics/SVG/1.1/DTD/svg11.dtd">
<svg version="1.1" id="Layer_1" xmlns="http://www.w3.org/2000/svg" xmlns:xlink="http://www.w3.org/1999/xlink" x="0px" y="0px"
	 width="394.5px" height="117.5px" viewBox="258 198 394.5 117.5" enable-background="new 258 198 394.5 117.5"
	 xml:space="preserve">
<g>
	<polygon fill="#47B784" points="257.886,197.511 310.506,197.511 325.662,224.588 341.669,197.511 393.778,197.511 
		325.832,314.672 	"/>
	<polygon fill="#36495D" points="310.506,197.511 325.662,224.588 341.669,197.511 366.872,197.511 325.832,268.182 
		284.962,197.511 	"/>
</g>
<g>
	<g>
		<path fill="#36495D" d="M434.641,297.909h-0.178c-2.014,3.67-4.715,6.491-8.109,8.464c-3.393,1.973-7.495,2.959-12.309,2.959
			c-6.906,0-12.232-2.229-15.979-6.688c-3.75-4.459-5.624-11.602-5.624-21.426v-37.108h7.102v37.227
			c0,7.971,1.302,13.612,3.906,16.928c2.604,3.314,6.411,4.971,11.423,4.971c5.482,0,9.795-1.184,12.932-3.551
			c3.138-2.367,5.336-5.701,6.599-10.002v-45.572h7.104v64.038h-6.272L434.641,297.909z"/>
		<path fill="#36495D" d="M470.387,227.718v16.394h13.436v5.801h-13.436v41.724c0,4.262,0.7,7.25,2.102,8.967
			c1.399,1.717,3.305,2.574,5.712,2.574c1.024,0,1.953-0.049,2.781-0.146c0.829-0.1,1.894-0.268,3.195-0.504l1.006,5.326
			c-1.064,0.435-2.327,0.789-3.788,1.065c-1.459,0.275-2.938,0.414-4.438,0.414c-4.419,0-7.803-1.37-10.15-4.112
			s-3.521-7.271-3.521-13.584v-41.724H452.75v-5.801h10.534v-16.394H470.387z"/>
		<path fill="#36495D" d="M508.855,227.718v16.394h13.436v5.801h-13.435v41.724c0,4.262,0.699,7.25,2.101,8.967
			c1.4,1.717,3.305,2.574,5.712,2.574c1.025,0,1.953-0.049,2.781-0.146c0.829-0.1,1.894-0.268,3.196-0.504l1.006,5.326
			c-1.065,0.435-2.328,0.789-3.788,1.065c-1.46,0.275-2.939,0.414-4.438,0.414c-4.419,0-7.803-1.37-10.149-4.112
			c-2.349-2.742-3.521-7.271-3.521-13.584v-41.724H491.22v-5.801h10.534v-16.394H508.855z"/>
		<path fill="#36495D" d="M531.938,275.184c0-9.627,2.546-17.41,7.636-23.349c5.09-5.938,11.975-8.907,20.655-8.907
			c8.719,0,15.623,2.97,20.714,8.907c5.09,5.938,7.635,13.722,7.635,23.349v1.952c0,9.669-2.535,17.45-7.605,23.349
			c-5.069,5.899-11.944,8.849-20.625,8.849c-8.759,0-15.684-2.949-20.772-8.849c-5.089-5.898-7.635-13.68-7.635-23.349v-1.952
			H531.938z M539.039,277.136c0,7.576,1.845,13.841,5.534,18.791c3.688,4.952,8.945,7.429,15.771,7.429
			c6.747,0,11.964-2.477,15.654-7.429c3.688-4.95,5.533-11.215,5.533-18.791v-1.952c0-7.418-1.864-13.643-5.593-18.673
			c-3.729-5.03-8.967-7.546-15.714-7.546c-6.786,0-12.015,2.516-15.684,7.546c-3.67,5.03-5.505,11.255-5.505,18.673v1.952H539.039z"
			/>
		<path fill="#36495D" d="M609.823,244.111l0.592,11.837l0.178,0.06c2.051-4.063,4.833-7.26,8.345-9.588
			c3.513-2.328,7.636-3.492,12.37-3.492c6.903,0,12.132,2.013,15.685,6.037c3.551,4.024,5.326,10.516,5.326,19.472v39.712h-7.103
			v-39.594c0-7.299-1.303-12.369-3.906-15.21c-2.604-2.841-6.511-4.262-11.719-4.262c-4.813,0-8.809,1.382-11.983,4.143
			c-3.178,2.763-5.556,6.273-7.133,10.535v44.388h-7.103v-64.038L609.823,244.111L609.823,244.111z"/>
	</g>
</g>
</svg>
